<?xml version="1.0" encoding="UTF-8"?><svg id="Layer_1" xmlns="http://www.w3.org/2000/svg" xmlns:xlink="http://www.w3.org/1999/xlink" viewBox="0 0 226 226"><defs><style>.cls-1{fill:#fff;}.cls-2{clip-path:url(#clippath-2);}.cls-3{clip-path:url(#clippath-1);}.cls-4{clip-path:url(#clippath);}.cls-5{fill:none;}.cls-6{fill:#4f2683;}</style><clipPath id="clippath"><rect class="cls-5" x="53" y="43.65" width="120" height="138.69"/></clipPath><clipPath id="clippath-1"><rect class="cls-5" x="53" y="43.65" width="120" height="138.69"/></clipPath><clipPath id="clippath-2"><rect class="cls-5" x="53" y="43.65" width="120" height="138.69"/></clipPath></defs><rect class="cls-1" width="226" height="226"/><g class="cls-4"><path class="cls-6" d="m59.98,180.46v-3.49h.5v3.39c0,.85.43,1.51,1.41,1.51s1.41-.6,1.41-1.48v-3.42h.5v3.47c0,1.06-.65,1.88-1.93,1.88-1.26.03-1.88-.8-1.88-1.86m7.44-3.49h.55l2.91,4.35h.03v-4.35h.48v5.28h-.45l-2.99-4.47h-.03v4.47h-.48v-5.28h-.03Zm7.86,0h.5v5.28h-.5v-5.28Zm3.67,0h.53l1.58,4.6h.03l1.58-4.6h.5l-1.86,5.3h-.48l-1.88-5.3Zm7.24,0h3.14v.48h-2.64v1.78h1.96v.45h-1.96v2.09h2.79v.45h-3.29v-5.25Zm6.38,0h1.76c1.18,0,1.83.5,1.83,1.43,0,.85-.5,1.28-1.26,1.43l1.33,2.41h-.58l-1.28-2.36h-1.31v2.36h-.5v-5.28h0Zm1.73,2.46c.88,0,1.36-.25,1.36-1.01s-.48-.98-1.36-.98h-1.23v1.98h1.23Zm4.7,1.51l.45-.15c.23.73.78,1.11,1.51,1.11.78,0,1.31-.35,1.31-.95,0-.55-.25-.83-1.38-1.18s-1.71-.65-1.71-1.53c0-.75.68-1.36,1.63-1.36s1.56.5,1.81,1.21l-.43.2c-.25-.68-.73-.95-1.38-.95-.7,0-1.13.38-1.13.85,0,.6.35.78,1.46,1.16,1.11.35,1.63.7,1.63,1.56s-.78,1.43-1.83,1.43c-.98.03-1.68-.53-1.93-1.38m6.98-3.97h.5v5.28h-.5v-5.28Zm4.95.48h-1.71v-.48h3.92v.48h-1.71v4.8h-.5v-4.8h0Zm6.28,2.49l-1.76-2.96h.55l1.48,2.51,1.48-2.51h.55l-1.76,2.96v2.31h-.5v-2.31h-.05Zm6.86-.3c0-.33.23-.53.53-.53.33,0,.53.23.53.53s-.23.53-.53.53c-.33,0-.53-.2-.53-.53m5.95-.05c0-1.58.88-2.71,2.19-2.71,1.08,0,1.66.63,1.91,1.61l-.48.13c-.23-.83-.63-1.26-1.43-1.26-1.03,0-1.68.88-1.68,2.24,0,1.46.68,2.31,1.68,2.31.78,0,1.28-.45,1.51-1.33l.48.1c-.25,1.03-.93,1.68-1.98,1.68-1.33,0-2.19-1.08-2.19-2.76m15.05-2.61h.55l2.91,4.35h.03v-4.35h.48v5.28h-.45l-2.99-4.47h-.03v4.47h-.48l-.03-5.28h0Zm15.25,0h1.33c1.71,0,2.61.88,2.61,2.61s-.93,2.64-2.61,2.64h-1.33v-5.25Zm1.41,4.82c1.31,0,2.06-.68,2.06-2.21s-.75-2.16-2.06-2.16h-.9v4.37h.9Zm-22.61-4.85h.6l1.96,5.3h-.53l-.6-1.63h-2.34l-.6,1.63h-.5l2.01-5.3Zm1.28,3.24l-.98-2.69h-.03l-1.01,2.69h2.01Zm13.94-3.24h.6l1.96,5.3h-.53l-.6-1.63h-2.34l-.6,1.63h-.5l2.01-5.3Zm1.31,3.24l-.98-2.69h-.03l-.98,2.69h1.98Zm13.37-3.24h.6l1.96,5.3h-.53l-.6-1.63h-2.34l-.6,1.63h-.5l2.01-5.3Zm1.31,3.24l-.98-2.69h-.03l-.98,2.69h1.98Zm-60.08-25.63c-.3.33-.68.5-1.18.5-1.08,0-1.73-.45-3.37-.45-2.81,0-4.97,1.53-4.97,4.3,0,5.65,8.67,4.45,8.67,8.52,0,1.83-1.33,2.71-3.02,2.71-3.12,0-4.95-2.04-5.63-5h-.78l1.03,5.7c.33-.4.78-.53,1.23-.53.9,0,2.04.68,4.05.68,3.24,0,5.68-1.81,5.68-4.87,0-6.13-8.82-4.52-8.82-8.49,0-1.26.9-2.19,2.54-2.19,2.59,0,4.02,1.81,4.65,3.97h.75l-.83-4.85Zm44.02,15.3v.8h8.47v-.8h-2.51v-8.27c0-2.96,1.53-5.83,4.4-5.83,1.61,0,2.59.9,2.59,3.32v10.78h-2.51v.8h8.27v-.8h-2.51v-10.68c0-3.17-1.56-4.55-4.67-4.55-2.61,0-4.52,1.28-5.5,3.44h-.05v-3.49c-.43.35-1.01.78-2.41.78h-3.37v.8h2.54v13.74h-2.71v-.05Zm-31.01-1.93c-.43.93-1.08,1.83-2.26,1.83s-1.71-.75-1.71-2.64v-11.01h3.92v-.8h-3.92v-5.25h-.68c-.43,3.39-2.14,5.13-5.23,5.43v.63h2.61v10.88c0,2.04.4,3.97,3.69,3.97,2.09,0,3.34-.95,4.02-2.21l.25-.5-.7-.33Zm30.15-11.08c0-1.26-.93-2.21-2.66-2.21-2.59,0-3.87,2.31-4.55,4.17h-.05v-4.3c-.5.43-1.03.83-2.41.83h-3.57v.8h2.74v13.74h-2.74v.8h8.62v-.8h-2.64v-6.76c0-3.59,1.76-7.51,4.05-7.51.18,0,.28.03.38.08-.4.3-.65.8-.65,1.33,0,1.01.78,1.71,1.71,1.71,1.08-.05,1.78-.9,1.78-1.88m-56.28,9.42c-.9,2.11-2.39,3.79-5.13,3.79-4.1,0-4.7-3.12-4.7-7.91v-.25h10.55c0-4.27-2.36-7.19-6.76-7.19-4.8,0-7.41,3.72-7.41,8.17s2.44,8.17,7.39,8.17c3.07,0,5.53-1.16,6.83-4.52l-.78-.25Zm-9.82-6.08c.18-2.36,1.03-4.67,3.54-4.67,2.66,0,3.24,2.09,3.29,4.27v1.11h-6.86c0-.2.03-.5.03-.7m50.93,6.08c-.9,2.11-2.39,3.79-5.13,3.79-4.1,0-4.7-3.12-4.7-7.91v-.25h10.55c0-4.27-2.36-7.19-6.78-7.19-4.8,0-7.41,3.72-7.41,8.17s2.44,8.17,7.39,8.17c3.07,0,5.53-1.16,6.83-4.52l-.75-.25Zm-9.82-6.08c.18-2.36,1.03-4.67,3.54-4.67,2.66,0,3.24,2.09,3.29,4.27v1.11h-6.86c0-.2.03-.5.03-.7m-58.54-5.7c-1.41,4.02-5.75,16.51-5.75,16.51h-.63l-7.11-19.37-1.18-3.09h-2.21v-.78h9.12v.78h-2.86l.88,2.59,4.97,13.72h.08l4.12-11.91-1.63-4.4h-2.76v-.78h9.95v.78h-3.22l.88,2.54,5.03,13.77h.08l4.47-13.72.75-2.59h-2.86v-.78h6.46v.78h-2.31l-1.01,2.86-6.43,19.6h-.68l-6.13-16.51Z"/></g><g class="cls-3"><path class="cls-1" d="m154.86,84.63v-35.63c-9.22-3.24-23.69-5.35-40.03-5.35s-30.25,2.09-39.47,5.38v36.13c0,5.33-.25,14.75,4.6,26.06,6.01,14.02,17.66,24.57,34.27,31.18l.85.35.85-.35c16.63-6.61,28.27-17.16,34.3-31.18,4.87-11.31,4.62-21.46,4.62-26.58"/></g><g class="cls-2"><path class="cls-6" d="m154.86,84.63v-35.63c-9.22-3.24-23.69-5.35-40.03-5.35s-30.25,2.11-39.47,5.38v36.13c0,5.33-.25,14.75,4.6,26.06,6.01,14.02,17.66,24.57,34.27,31.18l.85.35.85-.35c16.63-6.61,28.27-17.16,34.3-31.18,4.85-11.31,4.62-21.46,4.62-26.58m-31.06,38.99c-.18.05-.4.13-.55.23-.13.05-.18.1-.2.18,0,.08.05.15.1.2-.1.38-1.01.33-1.31.43-.25.1-.55.38-.73.55s-.1.15-.38.2c-.48.1-.38.55-.23.9s.4.63.73.85c.13.08.63.28.9.28-.28.3-.65.23-.98.35-.2.08-.35.18-.58.23-.28.05-.43.05-.65,0-.38-.08-.65-.05-.95-.03-.23.03-.43,0-.63-.13-.08-.05-.25-.18-.35-.2-.28-.05-.05.38,0,.5-.38.35-1.23-.13-1.58-.35-.3-.18-.45-.6-.8-.7-.03.35,0,.73,0,1.08.05,1.11.08,2.21.1,3.32.03.65.03,1.31.05,1.93h-1.23l.15-6.41c-.4.03-.55.38-.85.53-.2.08-.4.05-.58.15-.2.13-.28.28-.5.4-.18.08-.43.13-.63.1-.25,0-.55-.05-.7-.2.13-.23,0-.48-.15-.55-.2-.1-.45.05-.63.1-.85.2-1.83-.3-2.61-.6,0,0,1.86-.33,1.86-1.41,0-.3-.15-.55-.38-.75-.23-.18-.63-.4-.9-.43-.45-.08-.78.05-1.06-.05.05-.15-.2-.35-.4-.5-.18-.13-.43-.2-.63-.3-.38-.2-.93-.55-.78-1.03.3.15.6.18.85.05.23-.13.3-.28.3-.53,0-.35-.38-.58-.53-.83-.1-.2-.2-.4-.4-.55-.18-.13-.48-.18-.48-.45.35.15.45-.18.25-.4-.25-.28-.55-.4-.73-.73-.15-.3-.28-.65-.28-.98,0-.1.03-.38.15-.4s.18.15.23.23c.23.33.55.48.88.65.4.2.58.33,1.03.4.9.15,1.48.03,1.98-.45.1-.08.3-.25.43-.25.18.25.65.75,1.13.88.35.1.73.6.93.75.63.55,1.01.23,1.01-.28,0-.43-.15-1.01-.25-1.41-.15-.68-.28-1.01-.38-1.71-.05-.43-.3-.78-.45-1.08-.15-.3-.38-1.08.18-.8.23.1.58.33.85.28.65-.1.75-.8.88-1.36.08-.28.08-.5.18-.78.05-.15.13-.25.23-.25.03.08.13.23.25.23.25,0,.48-.43.53-.7.05-.23.1-.48.15-.68.13-.33.15-.73.33-1.11.08.25.18.7.25.85.15.4.3.8.53,1.13.2.28.45.38.78.2.15.38.15,1.61.48,2.19.2.35.43.45.73.45.25,0,.45-.08.63-.2.23-.13.48-.3.65-.3.08,0,.13.05.13.1,0,.25-.4.95-.45,1.11-.13.33-.33.7-.43,1.06-.08.28-.18.63-.23.93-.08.33-.13.7-.15,1.23-.03.3,0,.88.25,1.03.35.23.78-.23,1.06-.43.33-.25.63-.5.88-.85.18-.25.55-.9.9-.88,0,.28.38.63.93.73.35.05.63-.03.83-.18.25-.2.28-.18.58-.08.63.25,1.68-.58,2.06-.88.13.13,0,.38-.15.63-.3.45-.65.6-.65.95,0,.3-.38.85-.35,1.18-.1.2-.45.4-.63.53-.48.4-.75.85-.58,1.48.15.53.6.8,1.01.8.43,0,.68-.28.83-.2.08.05-.13.3-.2.38-.23.2-.6.33-.85.43m23.72-50.43h-64.8l-4.15-4.35,8.27,2.76c-.68-2.06-2.56-2.76-3.79-4.52-.73-1.06-.98-2.09-.88-3.14.23.38.63.9,1.26,1.33.6.4,1.41.73,2.49.98,1.96.43,2.96,1.03,3.82,1.83l-4.22-7.61,7.29,4.7c-.3-2.16-1.81-3.29-2.54-5.3-.45-1.18-.43-2.26-.08-3.29.13.43.38,1.03.88,1.61.48.55,1.18,1.06,2.19,1.56,1.86.93,2.66,1.81,3.32,2.81l-2.24-8.49,5.85,6.33c.23-2.14-.93-3.59-1.13-5.7-.13-1.26.13-2.31.73-3.22,0,.45.1,1.11.45,1.76.33.65.88,1.31,1.71,2.06,1.61,1.41,2.19,2.49,2.54,3.67l-.05-8.89,4.07,7.54c.8-1.91-.05-3.67.28-5.75.18-1.26.73-2.21,1.53-2.94-.1.43-.18,1.08,0,1.83.15.7.53,1.48,1.16,2.41,1.26,1.81,1.51,2.99,1.56,4.27h.03l2.16-8.72,2.09,8.37c1.26-1.73.93-3.69,1.76-5.63.5-1.18,1.26-1.86,2.21-2.36-.2.4-.43,1.01-.45,1.76-.03.73.13,1.58.5,2.61.73,2.01.7,3.22.43,4.42l4.22-7.81-.05,8.59c1.63-1.28,1.76-3.34,3.04-5,.78-1.01,1.71-1.48,2.74-1.73-.3.33-.68.88-.88,1.58s-.28,1.56-.15,2.66c.23,2.16-.13,3.34-.7,4.47h0l6.11-6.61-2.19,8.29c1.83-.88,2.51-2.64,4.15-3.94,1.01-.78,2.01-1.18,3.09-1.16-.38.25-.85.68-1.26,1.33-.38.63-.65,1.43-.8,2.54-.33,2.16-.95,3.19-1.78,4.17l.03.03,7.46-4.82-4.17,7.46c2.04-.3,3.02-1.91,4.92-2.76,1.16-.5,2.26-.65,3.32-.38-.43.15-1.01.43-1.56.98-.53.5-.98,1.23-1.43,2.26-.85,1.98-1.71,2.84-2.74,3.57l.05.05,8.54-2.84-4.17,4.37Zm-33.59,18.34c-.13-.2-.55-1.21-3.04-1.21h-7.26v-11.73h.53v11.18h6.63c.5,0,.95.03,1.31.1,1.33.2,1.91.75,2.16,1.13h1.71c.25-.38.78-.9,2.11-1.13.38-.05.8-.1,1.31-.1h6.68v-11.16h.53v11.68h-7.26c-2.49,0-2.89,1.03-2.99,1.21l-2.41.03h0Zm.88-2.01v.58c-1.01-1.91-5.63-1.58-9.55-1.21v-10.88c2.11-.03,4.2-.3,5.83-.3,2.06,0,3.47.3,3.72,1.51v9.77c-1.26-1.48-5-1.36-8.92-.98v.3c3.89-.35,7.99-.48,8.92,1.21m-8.19-4.27c.48,0,.95-.03,1.33-.03.5,0,.93.03,1.33.03v-.23h-.23c-.65,0-.7-.08-.7-.5v-1.88c0-.53.08-.55.53-.55h.4v-.23c-.43,0-.88.03-1.33.03-.43,0-.88-.03-1.33-.03v.23h.4c.43,0,.53.03.53.55v1.88c0,.43-.05.5-.7.5h-.23v.23h0Zm4.67-2.31c-.5-.3-.85-.75-.85-1.31,0-.48.35-1.36,1.51-1.36.9,0,1.31.58,1.31,1.08,0,.55-.2.85-.95,1.21.75.38,1.08.78,1.08,1.36,0,.8-.63,1.41-1.61,1.41-.88,0-1.43-.6-1.43-1.23,0-.68.53-1.01.95-1.16m1.28,1.36c0-.43-.2-.7-1.08-1.23-.4.2-.6.6-.6.98,0,.7.48,1.03.88,1.03.55,0,.8-.4.8-.78m-.45-1.83c.35-.28.58-.55.58-1.03,0-.55-.38-.9-.8-.9-.48,0-.75.4-.75.8-.03.45.3.73.98,1.13m6.98-4.75c1.63,0,3.69.3,5.83.3v10.88c-3.92-.4-8.54-.7-9.55,1.21v-.58c.9-1.71,5.05-1.56,8.94-1.18v-.3c-3.94-.38-7.71-.53-8.94.98v-9.77c.25-1.21,1.68-1.53,3.72-1.53m-2.56,5.38h.23l.18-.45h2.04l-1.98,4.07.38.1,2.49-4.87-.05-.08h-3.04l-.23,1.23Zm4.92-.15c-.5-.3-.85-.75-.85-1.31,0-.48.35-1.36,1.51-1.36.93,0,1.31.58,1.31,1.08,0,.55-.2.85-.95,1.21.75.38,1.08.78,1.08,1.36,0,.8-.63,1.41-1.61,1.41-.88,0-1.43-.6-1.43-1.23,0-.68.53-1.01.95-1.16m1.28,1.36c0-.43-.2-.7-1.08-1.23-.4.2-.6.6-.6.98,0,.7.48,1.03.88,1.03.55,0,.8-.4.8-.78m-.45-1.83c.35-.28.58-.55.58-1.03,0-.55-.38-.9-.8-.9-.48,0-.75.4-.75.8,0,.45.3.73.98,1.13m17.06,40.33l-24.25-19.77-24.25,19.77c-12.51-14.52-12.41-31.31-12.39-38.22v-11.38h.05l36.58,29.82,36.58-29.82h.05v11.38c.05,6.91.13,23.69-12.39,38.22m-45.43-10.63c5.15,0,9.35-4.2,9.37-9.4,0-5.2-4.17-9.42-9.32-9.42s-9.35,4.2-9.37,9.4c-.03,5.18,4.17,9.4,9.32,9.42m6.06-13.32c.03.28-.13.75-.23.88-.1.03-.38.05-.55.08-.13,0-.15.03-.23.15-.23.4-.43.75-.68,1.23-.05.55-.05,1.08-.1,1.73-.03.23.03.53-.15.8-.2.25-.43.45-.6.58-.03.03-.08.1.08.05.1-.03.53-.25.63-.28.3-.1.65-.48,1.13,0,.23.23.6.45,1.01.73.15.1.25.08.45.28.18.15.25.48.35.65.25.45.3.73.28.83-.18.1-.78.1-1.03.03-.08-.15-.08-.38-.13-.5-.08-.23-.18-.33-.28-.4-.18-.13-.33-.28-.53-.4-.48-.25-.53-.33-.88-.15-.33.15-.8.6-1.33.88-.4.2-1.53,0-1.83-.28.1.3.73.65,1.21.88-.08.18-.23,1.03-.58,1.53-.03-.13-.1-.23-.2-.23-.33,0-.25.68-.55,1.03-.03-.1-.1-.23-.23-.23-.3,0-.25.63-.6.95-.03-.15-.13-.23-.25-.23s-.25.13-.38.25c-.4.43-.58.68-.98,1.08-1.28-.08-3.17-.95-3.84-1.76,1.21-1.31,2.31-2.59,2.84-2.96.25-.78,1.03-2.39,1.31-3.14-.03-.08-.08-.15-.13-.23-.2.1-.4.13-.5.08.08-.2.08-.55,0-.8-.13.08-.33.13-.48.08.08-.25.1-.55.03-.78h0c-.18.08-.33.1-.45.05.08-.28.15-.55.05-.9,0-.03-.03-.05-.03-.08-.23.13-1.06.28-1.23.2-.13-.1.58-.8,1.18-1.38-.55.25-1.28.5-2.39.73-.63.13-1.96.35-2.89.2-.15-.03-.13-.23.03-.23.5,0,1.16-.03,1.63-.15.13-.03.33-.15-.03-.2-.4-.08-1.13-.18-1.48-.3-.13-.05-.05-.2.05-.2.45.03.98.13,1.36.15.23,0,.33-.03.15-.18-.1-.08-.4-.28-.73-.48-.08-.05-.05-.15.03-.15.25-.05,1.26.58,1.91.75.15.05.28.08.4.05s.15-.1.15-.15c-.03-.15-.68-.48-1.01-.68-.13-.08,0-.18.15-.15.35.1,1.16.53,1.53.58.3.03.4-.05.38-.13-.03-.2-1.16-.73-1.43-.93-.08-.05.03-.13.1-.13.58.08,1.68.85,2.19.75.05,0,.13-.05.1-.13-.05-.23-.98-.7-1.21-.85-.13-.08.03-.15.18-.13.35.08.88.35,1.18.5.15.08.28.1.43.08.2-.03.38-.25.3-.7s-.5-.63-.8-.7c-.33-.1-.08-.25.2-.2.53.1.93.35,1.03.83.03.08.03.18.03.28,0,.25.2.18.35-.05.3-.4.35-.83.3-1.11-.08-.48-.78-.68-.78-.8,0-.05.05-.08.08-.08.28-.05.98.28,1.11.85.05.3,0,.48-.05.78-.03.08.03.13.13.03.35-.35.63-.98.53-1.53-.1-.6-.73-.8-.75-.9,0-.03.05-.08.1-.08.25-.05.93.35,1.08,1.03.13.6-.15,1.81-1.98,2.79.78-.18.98-.15,1.06-.05.88-.23,1.46-.43,1.68-.38.25.38-.28.53-.28.8s.63-.18.5.25c-.18.35-.43.35-.7.48-.15.1-.68.48-.98.73.88.6,1.78,1.56,1.83,1.58.05.13.28.53.53,1.11l.03.03c.13-.38.33-1.01.43-1.33.08-.28.05-.38.15-.53.08-.13.33-.38.55-.7.2-.3.53-.75.63-.9.18-.28.38-.23.7-.33.15-.1.53-.13.68-.13m-6.93.05c.05-.05.1-.1.18-.15.15-.08.35-.13.48-.15.08.1.03.25-.08.38-.13.13-.25.08-.35.03-.08-.05-.15-.03-.18-.03-.05,0-.08-.05-.05-.08m33.84,3.84c0-5.2,4.2-9.4,9.37-9.4s9.35,4.22,9.32,9.42c0,5.2-4.2,9.4-9.37,9.4-5.15,0-9.35-4.32-9.32-9.42m13.64-6.41c.05.08.1.15.1.25,0,.23-.18.43-.4.43s-.43-.18-.43-.4c0-.2.15-.4.35-.43l-.48-.75-.83.35c.08.08.15.18.15.3,0,.23-.18.43-.4.43s-.43-.18-.43-.4c0-.18.1-.33.25-.4-.25-.25-.78-.65-1.28-.83.4.7.6,1.58.6,2.31.53-.03,1.98.4,2.54.83.45-.65,1.11-1.28,1.86-1.56-.4-.08-1.11-.2-1.61-.13m-2.64,1.88c-.08,0-.13,0-.18-.03s-.08-.05-.1-.05c-.03-.03-.08-.08-.2-.1-.25-.03-.38.18-.38.28,0,.08,0,.18.08.23.05.05.1.1.18.1.05,0,.1,0,.15-.03h0c.1-.05.15-.15.18-.23.03-.05.13-.08.28-.1.03,0,.05-.03.05-.05,0,0-.03-.03-.05-.03m-2.51.13c-.05.1-.05.18-.03.25,0,0,.03.05.05.05-.03.15-.03.33.03.58.03.15.18.2.4.2,0,.05,0,.13.03.18v.03c-.15.05-.3.08-.43.05-.4-.03-.63-.25-.58-.63,0-.08.03-.13.08-.2.03-.03,0-.05-.03-.08-.13-.05-.53.28-.6.73-.05.43.18.68.55.7.2,0,.48-.03.75-.13.48-.2,1.03-.25,1.36.08-.25-.05-.9,0-1.11.05-.28.05-.4.63-.1.65.25.03,1.13-.05,1.18-.03-.1.38-.65.85-1.21.98-.35-.15-1.33-.1-1.76.03-.55-.63-.98-1.81-1.03-2.21-.03-.18-.03-.38.08-.55.18-.33.53-.3.7-.58.1-.15.05-.33.08-.5,0-.08.15-.33-.03-.4-.08.1-.2.18-.38.13-.1-.03-.23-.08-.35-.03-.2.08-.23.33-.38.48-.08.08-.18.05-.15-.1.05-.23.15-.43.13-.65-.03-.23-.2-.4-.45-.53-.1-.05-.23-.15-.33-.18-.1-.03-.2.03-.2.05.05.05.1.1.1.2,0,.2-.23.33-.23.5,0,.3.2.58.23.73.03.13-.1.13-.15.08-.15-.08-.4-.23-.63-.23-.18,0-.3.15-.48.2-.08.03-.35.03-.3.15.15.03.28.13.33.28.05.13.08.2.18.28.18.13.55.1.73.13.13.03.25.1.3.33.03.18-.03.35-.13.5-.15.25-.23.5-.15.75.08-.1.13-.13.2-.13.15,0,.2.18.1.43-.1.23-.18.48-.08.75.05-.1.13-.15.23-.15.15,0,.23.15.13.43-.1.25-.13.5-.03.73.05-.1.13-.18.23-.18.15,0,.23.15.28.28.18.43.45.65,1.16.65-.25.45-2.26.18-3.09.08-.18-.03-.28-.08-.33-.23-.13-.33.18-.58,0-.93-.08-.18-.23-.2-.38-.3-.08-.05-.25-.28-.38-.18.05.13.05.23-.1.38-.1.08-.18.15-.2.3-.03.23.15.45.23.65.05.15-.03.2-.15.13-.2-.15-.48-.5-.78-.5-.2,0-.25.13-.43.2-.08.03-.38.08-.35.23.15.03.25.1.3.3.03.13.05.25.18.33.28.2.7.13.95.18.1.03.13.1.03.15-.2.13-.53.2-.63.43-.08.18-.03.38-.03.55,0,.08-.1.33.08.38.08-.1.2-.2.4-.18.13.03.23.08.35,0,.2-.1.23-.3.35-.48.05-.1.15-.18.3-.18.1,0,.18.03.25.08.18.15.15.48.65.55-.03-.05-.05-.13-.05-.18,0-.1.05-.18.15-.18.13,0,.2.05.3.23.13.23.28.3.5.33-.03-.05-.05-.13-.05-.2,0-.1.05-.18.15-.18.05,0,.18.03.25.18.15.25.25.35.5.38-.08-.15-.03-.33.18-.33s.68.18,1.03.3c0,.9.58,1.88,1.46,2.49-.03-.18.05-.28.18-.28.35,0,.53.83,1.33,1.23-.05-.15.05-.25.15-.25s.23.05.3.1c.73.38,1.48.88,1.83,1.21.75-.23,1.96-.95,2.76-1.76-.48-.15-1.83-1.16-2.31-1.66-.85-.88-1.08-1.78-1.08-2.46,0-.23.03-.43.1-.6.25.15.6.13.8-.08-.38-.3-.33-.9-.2-1.11.2.18.6.13.8-.05-.3-.18-.45-.65-.3-1.08.15.18.55.18.78,0-.3-.25-.48-.68-.38-1.16.15.2.43.23.63.15-.13-.25-.13-.7-.18-.98-.05-.4-.15-.85-.3-1.08-.43-.38-1.73-.88-2.54-.88-.1,0-.23.03-.3.03-.23.05-.38.13-.4.18-.13.18-.43.23-.68.3-.25.08-.75.2-.95.33m1.23,6.33h-.08c-.05.55-.35,1.38-.55,1.68l.35-.28.23.28.23-.28.33.28c-.15-.33-.45-1.16-.5-1.68m6.23,2.66c.08-.1.18-.28.18-.28-.35-.53-.6-1.11-.55-1.76.05-.73.45-.93.78-.93.28,0,.48.23.5.55.25-.2.35-.45.38-.68.03-.18-.08-.48-.4-.55.58-.53.53-1.58-.08-2.01.08.75-.48,1.28-1.01,1.78-.68.68-.78,1.43-.65,2.21-.4-.78-.6-1.53-.55-2.26.05-.83.48-1.68,1.08-1.63.2.03.4.1.48.28.3-.48.08-1.01-.38-1.06.48-1.13-.3-2.26-.93-2.51.18.35.25.68.23,1.08-.08,1.08-1.03,1.96-1.13,3.59-.1,1.76.88,3.27,1.91,4.45-.03-.03.08-.15.15-.28m-4.12-.25h-.08c-.05.55-.35,1.38-.55,1.68l.35-.28.23.28.23-.28.33.28c-.15-.33-.45-1.16-.5-1.68m-1.61-7.11c.05-.1.08-.25.08-.35,0-.08,0-.15-.08-.23-.08-.08-.23-.1-.4-.1s-.35.03-.45.1c-.03.05-.03.1-.08.18.33,0,.68.08.93.4"/></g></svg>